<?xml version="1.0" encoding="UTF-8" standalone="no"?>
<!-- Created with Inkscape (http://www.inkscape.org/) -->

<svg
  width="128mm"
  height="64mm"
  viewBox="0 0 128 64"
  version="1.1"
  id="svg1"
  xml:space="preserve"
  inkscape:version="1.4 (86a8ad7, 2024-10-11)"
  sodipodi:docname="deno-otel-logo.svg"
  xmlns:inkscape="http://www.inkscape.org/namespaces/inkscape"
  xmlns:sodipodi="http://sodipodi.sourceforge.net/DTD/sodipodi-0.dtd"
  xmlns="http://www.w3.org/2000/svg"
  xmlns:svg="http://www.w3.org/2000/svg"
>
  <sodipodi:namedview
    id="namedview1"
    pagecolor="#ffffff"
    bordercolor="#000000"
    borderopacity="0.25"
    inkscape:showpageshadow="2"
    inkscape:pageopacity="0.0"
    inkscape:pagecheckerboard="0"
    inkscape:deskcolor="#d1d1d1"
    inkscape:document-units="mm"
    inkscape:zoom="1.0396254"
    inkscape:cx="396.77752"
    inkscape:cy="561.25984"
    inkscape:window-width="2560"
    inkscape:window-height="1369"
    inkscape:window-x="-8"
    inkscape:window-y="-8"
    inkscape:window-maximized="1"
    inkscape:current-layer="layer1"
  /><defs
    id="defs1"
  /><g
    inkscape:label="Layer 1"
    inkscape:groupmode="layer"
    id="layer1"
  ><g
      id="g1"
      transform="matrix(0.0649186,0,0,0.06491201,63.537454,-0.45600691)"
    ><path
        fill="#f5a800"
        d="m 528.7,545.9 c -42,42 -42,110.1 0,152.1 42,42 110.1,42 152.1,0 42,-42 42,-110.1 0,-152.1 -42,-42 -110.1,-42 -152.1,0 z m 113.7,113.8 c -20.8,20.8 -54.5,20.8 -75.3,0 -20.8,-20.8 -20.8,-54.5 0,-75.3 20.8,-20.8 54.5,-20.8 75.3,0 20.8,20.7 20.8,54.5 0,75.3 z M 679,16.7 613.1,82.6 c -12.9,12.9 -12.9,34.1 0,47 l 257.3,257.3 c 12.9,12.9 34.1,12.9 47,0 L 983.3,321 c 12.9,-12.9 12.9,-34.1 0,-47 L 725.9,16.7 C 713,3.8 691.9,3.8 679,16.7 Z M 217.3,858.8 c 11.7,-11.7 11.7,-30.8 0,-42.5 l -33.5,-33.5 c -11.7,-11.7 -30.8,-11.7 -42.5,0 L 72.1,852 72,852.1 53,833.1 c -10.5,-10.5 -27.6,-10.5 -38,0 -10.5,10.5 -10.5,27.6 0,38 l 114,114 c 10.5,10.5 27.6,10.5 38,0 10.4,-10.5 10.5,-27.6 0,-38 l -19,-19 0.1,-0.1 z"
        id="path1"
      /><path
        fill="#425cc7"
        d="M 565.9,205.9 419.5,352.3 c -13,13 -13,34.4 0,47.4 l 90.4,90.4 c 63.9,-46 153.5,-40.3 211,17.2 l 73.2,-73.2 c 13,-13 13,-34.4 0,-47.4 L 613.3,205.9 c -13,-13.1 -34.4,-13.1 -47.4,0 z m -94,322.3 -53.4,-53.4 c -12.5,-12.5 -33,-12.5 -45.5,0 L 184.7,663.2 c -12.5,12.5 -12.5,33 0,45.5 l 106.7,106.7 c 12.5,12.5 33,12.5 45.5,0 L 458,694.1 C 432.4,641.2 437,577.3 471.9,528.2 Z"
        id="path2"
      /></g><g
      style="clip-rule: evenodd; fill-rule: evenodd; stroke-linejoin: round; stroke-miterlimit: 2"
      id="g2"
      transform="scale(0.15999439)"
    ><circle
        cx="200.007"
        cy="200.007"
        r="200.007"
        style="fill: #ffffff"
        id="circle1"
      /><path
        id="outline"
        d="m 261.684,245.149 c 33.861,1.662 69.225,-13.535 80.203,-43.776 10.978,-30.241 6.721,-60.148 -32.661,-78.086 -39.381,-17.944 -57.569,-39.272 -89.385,-52.14 -20.787,-8.408 -43.915,-3.418 -67.664,9.707 -63.963,35.351 -121.274,147.038 -94.858,250.518 0.379,1.419 -0.257,2.903 -1.544,3.615 -1.279,0.704 -2.885,0.439 -3.877,-0.64 C 16.282,295.06 -3.759,241.788 0.593,184.791 8.998,74.728 105.178,-7.806 215.241,0.599 325.296,9.003 407.83,105.182 399.425,215.245 c -3.529,46.221 -22.535,87.584 -51.559,119.399 -22.195,22.8 -50.473,32.935 -74.07,32.516 -17.107,-0.303 -33.839,-7.112 -45.409,-17.066 -16.516,-14.228 -23.191,-30.485 -25.474,-48.635 -0.572,-4.507 -0.236,-16.797 2.112,-25.309 1.745,-6.343 6.185,-18.599 12.676,-23.957 -7.595,-3.266 -17.361,-10.388 -20.446,-13.805 -0.753,-0.838 -0.652,-2.156 0.026,-3.057 0.671,-0.909 1.866,-1.262 2.925,-0.88 6.528,2.239 14.477,4.444 22.86,5.851 11.021,1.844 24.729,4.159 38.618,4.847 z M 192.777,85.086 c 10.789,-0.846 20.202,8.363 21.825,20.609 2.164,16.314 -3.822,33.166 -23.511,33.554 -16.819,0.335 -21.915,-16.625 -20.8,-26.9 1.107,-10.275 9.577,-26.25 22.486,-27.263 z"
      /></g></g><style
    id="style1"
  >
  svg {
    enable-background: new 0 0 1000 1000;
  }
  </style>
</svg>
